<?xml version="1.0" standalone="no"?>
<!DOCTYPE svg PUBLIC "-//W3C//DTD SVG 20010904//EN"
 "http://www.w3.org/TR/2001/REC-SVG-20010904/DTD/svg10.dtd">
<svg version="1.0" xmlns="http://www.w3.org/2000/svg"
 width="310.000000pt" height="310.000000pt" viewBox="0 0 310.000000 310.000000"
 preserveAspectRatio="xMidYMid meet">
<metadata>
Created by potrace 1.16, written by Peter Selinger 2001-2019
</metadata>
<g transform="translate(0.000000,310.000000) scale(0.100000,-0.100000)"
fill="#000000" stroke="none">
<path d="M0 1550 l0 -1550 1550 0 1550 0 0 1550 0 1550 -1550 0 -1550 0 0
-1550z m1146 155 c40 -77 77 -141 81 -142 4 -2 42 61 83 140 l75 142 58 3 57
3 0 -269 c0 -299 4 -282 -68 -282 -20 0 -42 4 -49 8 -8 5 -13 48 -15 132 l-3
125 -42 -81 c-44 -84 -55 -94 -103 -94 -33 0 -51 20 -95 103 -16 31 -33 57
-37 57 -4 0 -8 -54 -8 -119 0 -131 0 -131 -65 -131 -69 0 -65 -16 -65 282 l0
269 61 -3 62 -3 73 -140z m627 38 c85 -162 92 -175 102 -175 9 0 26 29 106
185 l51 97 59 0 59 0 0 -269 c0 -298 4 -281 -68 -281 -20 0 -42 4 -49 8 -8 5
-13 48 -15 132 l-3 125 -39 -70 c-52 -93 -63 -105 -101 -105 -43 0 -57 13
-101 99 l-39 74 -3 -124 c-2 -83 -7 -126 -15 -131 -7 -4 -29 -8 -49 -8 -72 0
-68 -17 -68 281 l0 269 58 0 59 0 56 -107z"/>
</g>
</svg>
