<?xml version="1.0" standalone="no"?>
<!DOCTYPE svg PUBLIC "-//W3C//DTD SVG 20010904//EN"
 "http://www.w3.org/TR/2001/REC-SVG-20010904/DTD/svg10.dtd">
<svg version="1.0" xmlns="http://www.w3.org/2000/svg"
 width="500.000000pt" height="500.000000pt" viewBox="0 0 500.000000 500.000000"
 preserveAspectRatio="xMidYMid meet">
<metadata>
Created by potrace 1.16, written by Peter Selinger 2001-2019
</metadata>
<g transform="translate(0.000000,500.000000) scale(0.100000,-0.100000)"
fill="#000000" stroke="none">
<path d="M0 2500 l0 -2500 2500 0 2500 0 0 2500 0 2500 -2500 0 -2500 0 0
-2500z m1164 466 l269 -509 23 44 c12 24 133 253 267 509 l246 465 180 3 181
2 0 -900 0 -900 -205 0 -205 0 -2 461 -3 461 -166 -309 -165 -308 -155 -3
-154 -2 -164 301 c-126 229 -167 297 -172 283 -4 -11 -8 -214 -8 -451 l-1
-433 -205 0 -205 0 0 900 0 900 188 -2 187 -3 269 -509z m2144 3 l270 -510 39
73 c21 40 142 270 268 510 l230 438 183 0 182 0 0 -900 0 -900 -205 0 -205 0
-2 465 -3 465 -170 -315 -169 -315 -154 2 -154 3 -167 304 -166 305 -3 -457
-2 -457 -205 0 -205 0 0 900 0 900 184 0 184 0 270 -511z"/>
</g>
</svg>
