<?xml version="1.0" standalone="no"?>
<!DOCTYPE svg PUBLIC "-//W3C//DTD SVG 20010904//EN"
 "http://www.w3.org/TR/2001/REC-SVG-20010904/DTD/svg10.dtd">
<svg version="1.0" xmlns="http://www.w3.org/2000/svg"
 width="500.000000pt" height="500.000000pt" viewBox="0 0 500.000000 500.000000"
 preserveAspectRatio="xMidYMid meet">
<metadata>
Created by potrace 1.11, written by Peter Selinger 2001-2013
</metadata>
<g transform="translate(0.000000,500.000000) scale(0.100000,-0.100000)"
fill="#000000" stroke="none">
<path d="M0 2500 l0 -2500 2500 0 2500 0 0 2500 0 2500 -2500 0 -2500 0 0
-2500z m1160 463 c146 -276 267 -504 270 -507 3 -2 125 223 272 502 l267 507
180 3 181 2 0 -895 0 -895 -200 0 -200 0 0 473 c-1 411 -2 470 -15 453 -8 -10
-87 -156 -177 -323 l-163 -303 -148 2 -149 3 -171 314 -172 315 -3 -467 -2
-467 -200 0 -200 0 0 895 0 895 182 -2 183 -3 265 -502z m2146 -3 c199 -377
272 -506 279 -496 6 7 127 237 270 509 l260 496 178 1 177 0 0 -895 0 -895
-200 0 -200 0 -2 471 -3 470 -171 -318 -172 -318 -148 -3 -149 -2 -169 310
c-93 170 -172 310 -177 310 -5 0 -9 -205 -9 -460 l0 -460 -200 0 -200 0 0 895
0 895 184 0 184 0 268 -510z"/>
</g>
</svg>
