<?xml version="1.0" standalone="no"?>
<!DOCTYPE svg PUBLIC "-//W3C//DTD SVG 20010904//EN"
 "http://www.w3.org/TR/2001/REC-SVG-20010904/DTD/svg10.dtd">
<svg version="1.0" xmlns="http://www.w3.org/2000/svg"
 width="512.000000pt" height="512.000000pt" viewBox="0 0 512.000000 512.000000"
 preserveAspectRatio="xMidYMid meet">
<metadata>
Created by potrace 1.11, written by Peter Selinger 2001-2013
</metadata>
<g transform="translate(0.000000,512.000000) scale(0.100000,-0.100000)"
fill="#000000" stroke="none">
<path d="M2378 5115 c-1 -1 -39 -5 -82 -9 -44 -4 -82 -9 -85 -11 -4 -2 -34 -7
-66 -10 -117 -14 -472 -111 -499 -136 -6 -5 -16 -9 -23 -9 -15 0 -131 -52
-228 -101 -631 -322 -1103 -899 -1299 -1584 -14 -49 -27 -102 -30 -118 -3 -15
-7 -35 -10 -45 -3 -9 -7 -34 -11 -56 -3 -21 -7 -41 -9 -45 -4 -6 -12 -71 -26
-201 -8 -84 -5 -453 5 -515 3 -22 12 -80 20 -130 143 -882 745 -1630 1581
-1963 197 -79 418 -137 604 -158 30 -3 76 -10 103 -14 48 -7 472 -5 517 4 14
2 45 7 70 10 25 4 92 16 150 27 58 12 115 23 128 25 38 7 320 103 370 125 91
41 245 121 321 166 636 382 1088 1046 1207 1773 38 236 40 573 5 805 -82 536
-331 1028 -722 1425 -66 67 -130 123 -240 213 -118 96 -366 244 -524 313 -44
20 -89 39 -100 44 -86 38 -365 119 -465 134 -19 3 -46 8 -60 11 -14 3 -45 8
-70 11 -25 3 -56 8 -70 10 -27 6 -456 14 -462 9z m-1 -1150 c71 -21 134 -59
189 -112 46 -46 100 -144 110 -200 2 -15 7 -34 10 -42 5 -16 5 -199 0 -246 -2
-16 -7 -50 -10 -75 -9 -55 -73 -360 -88 -415 -15 -56 -56 -259 -53 -263 2 -2
18 23 35 55 105 185 299 483 376 573 111 131 237 236 337 280 192 85 423 44
523 -92 46 -61 59 -122 59 -273 0 -189 -2 -206 -65 -535 -43 -228 -47 -247
-57 -340 -9 -76 -9 -227 -1 -285 30 -195 216 -279 356 -159 48 41 82 94 117
185 30 75 46 95 86 103 60 12 126 -38 158 -120 59 -149 -43 -391 -224 -530
-216 -167 -525 -160 -746 18 -89 71 -165 224 -193 383 -14 83 -15 346 -1 460
20 165 67 392 136 646 21 81 39 151 39 155 0 16 -172 -161 -254 -261 -112
-137 -247 -326 -311 -437 -5 -10 -42 -73 -82 -140 -96 -166 -104 -180 -275
-518 -83 -162 -162 -310 -175 -329 -35 -45 -104 -75 -155 -67 -76 12 -159 71
-182 128 -20 51 -11 428 19 778 3 36 8 94 10 130 3 36 7 76 10 90 2 14 7 54
10 90 3 36 8 81 10 100 5 34 9 69 20 160 5 47 25 184 30 211 2 9 6 40 10 70 3
30 8 61 10 69 2 8 7 33 10 55 3 23 8 52 10 65 19 94 35 183 35 189 0 9 -74
-75 -139 -159 -200 -259 -392 -599 -603 -1064 -22 -50 -52 -115 -65 -144 -14
-30 -70 -160 -125 -290 -169 -399 -190 -444 -228 -476 -58 -49 -135 -44 -223
15 -83 55 -84 58 -91 354 -3 143 -8 274 -11 290 -2 17 -6 57 -9 90 -5 65 -24
201 -31 225 -3 8 -7 29 -9 45 -2 17 -13 77 -24 135 -13 68 -17 111 -11 122 17
31 66 58 121 64 127 15 225 -62 263 -206 16 -62 15 -53 16 -97 0 -45 -4 -54
77 152 199 502 431 890 684 1146 206 209 401 293 565 244z"/>
</g>
</svg>
